<?xml version="1.0" encoding="UTF-8" standalone="no"?>
<svg
   xmlns:dc="http://purl.org/dc/elements/1.1/"
   xmlns:cc="http://creativecommons.org/ns#"
   xmlns:rdf="http://www.w3.org/1999/02/22-rdf-syntax-ns#"
   xmlns:svg="http://www.w3.org/2000/svg"
   xmlns="http://www.w3.org/2000/svg"
   id="svg2199"
   version="1.1"
   viewBox="0 0 83.050087 83.046707"
   height="83.046707mm"
   width="83.050087mm">
  <defs
     id="defs2193" />
  <metadata
     id="metadata2196">
    <rdf:RDF>
      <cc:Work
         rdf:about="">
        <dc:format>image/svg+xml</dc:format>
        <dc:type
           rdf:resource="http://purl.org/dc/dcmitype/StillImage" />
        <dc:title></dc:title>
      </cc:Work>
    </rdf:RDF>
  </metadata>
  <g
     transform="translate(-18.951146,-38.518316)"
     id="layer1">
    <path
       style="display:inline;fill:#a20749;fill-opacity:1;stroke:none;stroke-width:0.26458329;stroke-linejoin:round;stroke-miterlimit:4;stroke-dasharray:none;stroke-opacity:1;paint-order:stroke fill markers"
       d="m 21.096444,47.514018 c 0.5043,2.32836 0.26286,7.02112 -0.99616,9.88904 -3.51522,7.82244 1.61153,18.0412 7.58299,21.525289 1.235051,3.715221 4.160101,6.623762 7.882231,7.837781 4.67214,19.946062 22.574039,34.798872 43.946149,34.798892 12.420762,0 22.489576,-10.06882 22.489576,-22.489583 0,-9.26896 -5.607704,-17.2275 -13.615186,-20.670039 3.70605,-5.93035 2.40176,-13.85597 -3.244768,-18.230429 -2.445811,-1.894811 -5.32752,-2.83884 -8.200022,-2.887661 -4.198279,-0.0714 -8.37673,1.76869 -11.146079,5.34334 -2.311341,2.983441 -1.766461,7.275669 1.216981,9.58699 2.983439,2.31135 7.27565,1.766491 9.587018,-1.21698 1.91916,-2.47726 5.482931,-2.929461 7.96023,-1.010261 2.321081,1.79819 2.85051,5.074631 1.331172,7.51428 -2.022502,-0.59722 -4.162851,-0.919319 -6.378922,-0.919319 -7.745039,0 -14.574919,3.915799 -18.620049,9.87483 -4.296831,-1.386261 -7.619791,-2.872499 -10.66705,-5.53919 1.27191,-2.342671 1.750909,-5.034251 1.365279,-7.671879 -0.0718,-0.46691 -0.170289,-0.929323 -0.295069,-1.384941 0.0681,-0.138821 0.14587,-0.29225 0.211349,-0.42582 2.382711,-7.69207 1.97721,-15.6723 -4.145489,-20.52476 -3.00892,-2.33907 -5.381681,-6.43943 -5.76519,-8.73688 -6.670041,-7.15127 -18.579621,-2.98807 -20.498991,5.3373 z m 18.55356,20.149369 c 4.068921,1.11e-4 7.367401,3.298621 7.36751,7.367542 -0.003,0.703048 -0.103691,1.402239 -0.30334,2.076339 -1.025739,-1.161011 -1.407089,-2.39463 -2.144059,-3.586851 -0.97311,-1.563158 -2.70134,-2.607069 -4.67775,-2.607069 -3.043161,0 -5.510481,2.466581 -5.51646,5.509739 0,1.2587 0.0533,2.50462 0.153989,3.737239 l -0.696089,-0.611848 c -1.00431,-1.291651 -1.550091,-2.880871 -1.551311,-4.51702 1.11e-4,-4.068921 3.298591,-7.36743 7.36751,-7.367539 z m 7.735942,22.96451 c 2.770669,1.607801 6.59633,2.60083 10.317718,2.933681 -0.44468,1.76435 -0.68212,3.61143 -0.68212,5.513859 0,6.169033 5.00134,11.169863 11.170391,11.169863 6.16902,0 11.33012,-5.00107 11.319719,-10.423651 -0.01061,-3.859641 3.883822,-7.593862 8.489921,-7.593862 4.606081,0 8.34004,3.73398 8.34004,8.340063 -2.9e-5,10.95412 -8.813509,18.16402 -19.767629,18.16402 -5.477061,0 -12.461902,-2.21123 -16.045151,-5.79475 C 54.415346,106.82321 49.827444,99.178868 47.385946,90.627897 Z"
       id="path934" />
  </g>
</svg>
