<?xml version="1.0" encoding="UTF-8" standalone="no"?>
<svg
   xmlns:dc="http://purl.org/dc/elements/1.1/"
   xmlns:cc="http://creativecommons.org/ns#"
   xmlns:rdf="http://www.w3.org/1999/02/22-rdf-syntax-ns#"
   xmlns:svg="http://www.w3.org/2000/svg"
   xmlns="http://www.w3.org/2000/svg"
   width="301.65839mm"
   height="83.046707mm"
   viewBox="0 0 301.65839 83.046707"
   version="1.1"
   id="svg990">
  <defs
     id="defs984" />
  <metadata
     id="metadata987">
    <rdf:RDF>
      <cc:Work
         rdf:about="">
        <dc:format>image/svg+xml</dc:format>
        <dc:type
           rdf:resource="http://purl.org/dc/dcmitype/StillImage" />
        <dc:title></dc:title>
      </cc:Work>
    </rdf:RDF>
  </metadata>
  <g
     id="layer1"
     transform="translate(-29.844998,-59.300813)">
    <g
       transform="translate(496.9352,-631.42746)"
       style="display:inline;fill:#a20749;fill-opacity:1"
       id="g965">
      <path
         id="path960"
         transform="scale(0.26458333)"
         d="m -1757.2721,2644.6261 c 1.906,8.8001 0.9935,26.5365 -3.765,37.3759 -13.2859,29.5651 6.0908,68.1872 28.6601,81.3554 4.6679,14.0418 15.7232,25.0347 29.7911,29.6231 17.6585,75.3867 85.3192,131.5233 166.0957,131.5234 46.9446,0 85,-38.0554 85,-85 0,-35.0323 -21.1945,-65.1118 -51.459,-78.123 14.0071,-22.4139 9.0775,-52.369 -12.2637,-68.9024 -9.244,-7.1615 -20.1355,-10.7295 -30.9922,-10.914 -15.8675,-0.2699 -31.6601,6.6848 -42.1269,20.1953 -8.7358,11.276 -6.6764,27.4986 4.5996,36.2343 11.276,8.7358 27.4985,6.6765 36.2344,-4.5996 7.2535,-9.3629 20.7229,-11.072 30.0859,-3.8183 8.7726,6.7963 10.7736,19.1797 5.0312,28.4004 -7.6441,-2.2572 -15.7336,-3.4746 -24.1093,-3.4746 -29.2726,0 -55.0863,14.7999 -70.375,37.3222 -16.24,-5.2394 -28.7992,-10.8567 -40.3164,-20.9355 4.8072,-8.8542 6.6176,-19.0271 5.1601,-28.9961 -0.2712,-1.7647 -0.6436,-3.5124 -1.1152,-5.2344 0.2573,-0.5247 0.5513,-1.1046 0.7988,-1.6094 9.0055,-29.0724 7.4729,-59.2339 -15.668,-77.5739 -11.3723,-8.8406 -20.3402,-24.338 -21.7897,-33.0213 -25.2096,-27.0284 -70.2222,-11.2935 -77.4765,20.1725 z m 70.1237,76.1551 c 15.3786,4e-4 27.8453,12.4672 27.8457,27.8458 -0.01,2.6572 -0.3919,5.2998 -1.1465,7.8476 -3.8768,-4.3881 -5.3181,-9.0506 -8.1035,-13.5566 -3.6779,-5.908 -10.2098,-9.8535 -17.6797,-9.8535 -11.5017,0 -20.827,9.3225 -20.8496,20.8242 0,4.7573 0.2013,9.4663 0.582,14.125 l -2.6309,-2.3125 c -3.7958,-4.8818 -5.8586,-10.8883 -5.8632,-17.0722 4e-4,-15.3786 12.4671,-27.8454 27.8457,-27.8458 z m 29.2382,86.795 c 10.4718,6.0767 24.931,9.8299 38.9961,11.0879 -1.6807,6.6684 -2.5781,13.6495 -2.5781,20.8398 0,23.316 18.9027,42.2168 42.2188,42.2168 23.316,0 42.8225,-18.9017 42.7832,-39.3965 -0.04,-14.5876 14.679,-28.7012 32.0879,-28.7012 17.4088,0 31.5214,14.1127 31.5214,31.5215 -10e-5,41.4014 -33.3109,68.6514 -74.7123,68.6514 -20.7007,0 -47.1001,-8.3574 -60.6431,-21.9014 -23.1061,-23.1077 -40.4462,-51.9997 -49.6739,-84.3183 z"
         style="display:inline;fill:#a20749;fill-opacity:1;stroke:none;stroke-width:0.99999982;stroke-linejoin:round;stroke-miterlimit:4;stroke-dasharray:none;stroke-opacity:1;paint-order:stroke fill markers" />
      <g
         id="flowRoot920"
         style="font-style:normal;font-weight:normal;font-size:40px;line-height:1.25;font-family:sans-serif;letter-spacing:0px;word-spacing:0px;display:inline;fill:#a20749;fill-opacity:1;stroke:none;stroke-width:0.14950189"
         transform="matrix(1.7697658,0,0,1.7697658,-1323.6502,-482.38379)"
         aria-label="acchus">
        <path
           id="path944"
           style="font-style:italic;font-variant:normal;font-weight:normal;font-stretch:normal;font-family:Molle;-inkscape-font-specification:'Molle Italic';fill:#a20749;fill-opacity:1;stroke-width:0.02146385"
           d="m 539.91602,706.37017 q -2.67579,3.125 -6.52344,3.125 -2.44141,0 -3.90625,-1.46485 -1.44531,-1.44531 -1.44531,-3.80859 0,-2.98828 2.34375,-5.80078 2.26562,-2.73438 5.9375,-4.45313 3.80859,-1.77734 7.87109,-1.77734 1.54297,0 2.20703,0.48828 0.52734,-0.625 0.9375,-0.72266 0.42969,-0.11718 0.66406,-0.11718 0.74219,0 1.58203,0.21484 -0.0781,0.25391 -0.33203,0.87891 -0.2539,0.60546 -0.5664,1.44531 -0.3125,0.83984 -0.66407,1.83594 -1.26953,3.55468 -1.26953,5.33203 0,1.75781 1.11328,1.75781 1.44532,0 3.22266,-1.30859 1.58203,-1.19141 2.77344,-2.96875 0.8789,-0.0586 0.8789,0.72265 0,0.66406 -0.82031,2.03125 -0.80078,1.36719 -1.5625,2.36328 -0.76172,0.9961 -1.69922,1.95313 -0.9375,0.95703 -1.99218,1.71875 -2.36329,1.67969 -4.60938,1.67969 -2.85156,0 -3.82812,-1.71875 -0.3125,-0.52735 -0.3125,-0.91797 0,-0.41016 0,-0.48828 z m -5.58594,-5.33204 q 0,2.26563 1.89453,2.26563 2.08984,0 4.92187,-3.37891 1.50391,-1.79687 2.61719,-3.4375 1.13281,-1.64062 1.71875,-2.5 -4.88281,0.0391 -8.10547,2.22657 -3.04687,2.07031 -3.04687,4.82421 z" />
        <path
           id="path946"
           style="font-style:italic;font-variant:normal;font-weight:normal;font-stretch:normal;font-family:Molle;-inkscape-font-specification:'Molle Italic';fill:#a20749;fill-opacity:1;stroke-width:0.02146385"
           d="m 566.2832,695.31548 q -1.48437,-0.78125 -2.63672,-0.78125 -1.13281,0 -2.07031,0.52734 -0.91797,0.50781 -1.62109,1.34766 -1.48438,1.77734 -1.48438,3.94531 0,1.64063 1.17188,2.57813 1.07422,0.89843 3.16406,0.89843 2.08984,0 4.10156,-1.23047 2.03125,-1.25 3.55469,-3.57421 0.87891,-0.0586 0.87891,0.72265 0,0.3125 -0.48828,1.46485 -0.46875,1.13281 -1.71875,2.8125 -1.25,1.67968 -2.89063,2.96875 -3.55469,2.79296 -7.73437,2.79296 -3.37891,0 -5.3125,-1.73828 -1.95313,-1.75781 -1.95313,-5.05859 0,-2.57813 2.03125,-5.17578 1.89453,-2.44141 4.78516,-4.00391 2.94922,-1.60156 5.50781,-1.60156 1.38672,0 2.14844,0.46875 1.32812,0.82031 1.32812,1.5625 0,0.80078 -0.76172,1.07422 z" />
        <path
           id="path948"
           style="font-style:italic;font-variant:normal;font-weight:normal;font-stretch:normal;font-family:Molle;-inkscape-font-specification:'Molle Italic';fill:#a20749;fill-opacity:1;stroke-width:0.02146385"
           d="m 582.92383,695.31548 q -1.48438,-0.78125 -2.63672,-0.78125 -1.13281,0 -2.07031,0.52734 -0.91797,0.50781 -1.6211,1.34766 -1.48437,1.77734 -1.48437,3.94531 0,1.64063 1.17187,2.57813 1.07422,0.89843 3.16407,0.89843 2.08984,0 4.10156,-1.23047 2.03125,-1.25 3.55469,-3.57421 0.8789,-0.0586 0.8789,0.72265 0,0.3125 -0.48828,1.46485 -0.46875,1.13281 -1.71875,2.8125 -1.25,1.67968 -2.89062,2.96875 -3.55469,2.79296 -7.73438,2.79296 -3.37891,0 -5.3125,-1.73828 -1.95312,-1.75781 -1.95312,-5.05859 0,-2.57813 2.03125,-5.17578 1.89453,-2.44141 4.78515,-4.00391 2.94922,-1.60156 5.50781,-1.60156 1.38672,0 2.14844,0.46875 1.32813,0.82031 1.32813,1.5625 0,0.80078 -0.76172,1.07422 z" />
        <path
           id="path950"
           style="font-style:italic;font-variant:normal;font-weight:normal;font-stretch:normal;font-family:Molle;-inkscape-font-specification:'Molle Italic';fill:#a20749;fill-opacity:1;stroke-width:0.02146385"
           d="m 588.7832,709.49517 q -4.25781,0 -4.25781,-4.86329 0,-4.12109 4.55078,-10.54687 4.00391,-5.64453 8.67188,-9.45313 2.94922,-2.40234 4.35547,-2.40234 1.03515,0 1.83593,0.95703 0.87891,1.01563 0.87891,2.08985 0,1.05468 -0.46875,1.91406 -0.44922,0.83984 -1.23047,1.69922 -0.76172,0.85937 -1.81641,1.69922 -1.03515,0.83984 -2.20703,1.58203 -2.42187,1.5625 -4.74609,2.34375 -0.83984,1.85547 -1.66016,4.12109 3.94532,-3.55469 9.19922,-4.96094 1.67969,-0.44922 2.83203,-0.44922 1.15235,0 1.38672,0.41016 0.23438,0.39063 0.0781,1.05469 -0.13672,0.66406 -0.54688,1.5039 -0.41015,0.83985 -0.83984,1.73829 -1.07422,2.32421 -1.07422,3.32031 0,2.05078 1.30859,2.05078 1.44532,0 3.22266,-1.30859 1.58203,-1.19141 2.77344,-2.96875 0.8789,-0.0586 0.8789,0.72265 0,0.625 -0.82031,2.03125 -0.80078,1.38672 -1.58203,2.40235 -0.78125,1.01562 -1.75781,2.01171 -0.97657,0.97657 -2.08985,1.73829 -2.5,1.73828 -4.80468,1.73828 -2.30469,0 -3.28125,-1.17188 -0.95704,-1.1914 -0.95704,-3.39844 0,-2.83203 3.41797,-7.08984 1.05469,-1.30859 0.91797,-1.30859 -1.5625,0 -4.74609,1.95312 -3.37891,2.07031 -4.76563,4.0625 -0.80078,3.14453 -0.95703,5.9961 0,0.78125 -1.69922,0.78125 z m 6.66016,-17.2461 q 2.51953,-1.15234 4.33594,-2.7539 1.8164,-1.64063 1.8164,-2.83204 0,-0.58593 -0.23437,-1.07421 -0.21485,-0.50782 -0.58594,-0.50782 -0.35156,0 -0.91797,0.52735 -0.5664,0.52734 -1.26953,1.46484 -1.48437,1.95313 -3.14453,5.17578 z" />
        <path
           id="path952"
           style="font-style:italic;font-variant:normal;font-weight:normal;font-stretch:normal;font-family:Molle;-inkscape-font-specification:'Molle Italic';fill:#a20749;fill-opacity:1;stroke-width:0.02146385"
           d="m 626.36133,700.96001 q 0,2.34375 1.66015,2.34375 1.44532,0 3.22266,-1.30859 1.58203,-1.19141 2.77344,-2.96875 0.8789,-0.0586 0.8789,0.72265 0,0.66406 -0.82031,2.03125 -0.80078,1.36719 -1.5625,2.36328 -0.76172,0.9961 -1.69922,1.95313 -0.9375,0.95703 -1.99218,1.71875 -2.36329,1.67969 -4.60938,1.67969 -3.39844,0 -4.53125,-2.42188 -2.14844,1.60156 -4.53125,2.20703 -0.82031,0.21485 -1.83594,0.21485 -0.99609,0 -1.99218,-0.35157 -0.97657,-0.37109 -1.67969,-1.05468 -1.44531,-1.40625 -1.44531,-3.86719 0,-2.75391 1.875,-5.78125 1.5625,-2.51953 3.98437,-4.45313 2.22656,-1.75781 3.59375,-1.75781 0.74219,0 1.67969,1.17188 -1.91406,1.34765 -3.30078,3.4375 -1.54297,2.32421 -1.54297,4.19921 0,2.26563 1.89453,2.26563 1.875,0 2.94922,-0.64453 0.76172,-3.04688 3.41797,-6.28906 2.63672,-3.22266 4.82422,-4.04297 0.70312,-0.25391 1.91406,0.66406 0.29297,0.21484 0.44922,0.37109 -1.66016,1.42578 -2.69532,3.86719 -0.8789,2.07031 -0.8789,3.73047 z" />
        <path
           id="path954"
           style="font-style:italic;font-variant:normal;font-weight:normal;font-stretch:normal;font-family:Molle;-inkscape-font-specification:'Molle Italic';fill:#a20749;fill-opacity:1;stroke-width:0.02146385"
           d="m 648.06055,693.36235 c -0.71615,-0.0521 -1.41276,-0.039 -2.08985,0.0391 v 0.68359 c 0,0.32552 0.0456,0.8138 0.13672,1.46484 0.0911,0.65105 0.20182,1.36719 0.33203,2.14844 0.29716,1.94381 0.60759,3.21605 0.54688,4.49219 -0.30223,6.35326 -5.30952,7.24552 -9.60938,7.42191 -0.68952,0.0283 -1.45182,-0.1888 -2.28515,-0.5664 -0.83333,-0.39063 -1.54297,-0.91797 -2.12891,-1.58203 -1.21094,-1.36719 -1.81641,-3.1185 -1.81641,-5.25391 0,-0.88542 0.67057,-1.88151 2.01172,-2.98828 0.37761,-0.3125 0.75521,-0.58594 1.13282,-0.82031 1.30208,-1.95313 3.15104,-3.64584 5.54687,-5.07813 2.40885,-1.43229 4.66146,-2.14844 6.75781,-2.14844 0.75521,0 1.27605,0.20833 1.5625,0.625 0.3125,0.44271 0.27997,0.96355 -0.0976,1.5625 z m -9.82422,9.08203 c 0.28646,0.22136 0.60547,0.33204 0.95703,0.33204 0.35156,0 0.69661,-0.13672 1.03516,-0.41016 0.33854,-0.27344 0.64453,-0.63802 0.91796,-1.09375 0.28646,-0.45573 0.53386,-0.98307 0.74219,-1.58203 0.22135,-0.59896 0.41667,-1.22396 0.58594,-1.875 0.28646,-1.09375 0.57292,-2.38933 0.85937,-3.88672 -2.20052,0.67708 -4.14713,1.7513 -5.83984,3.22266 -0.50781,0.45573 -0.95052,0.91796 -1.32812,1.38671 0.45573,1.875 1.14583,3.17708 2.07031,3.90625 z" />
      </g>
    </g>
  </g>
</svg>
